<svg xmlns="http://www.w3.org/2000/svg" width="56" height="56" viewBox="0 0 56 56"
     fill="none" stroke="#1f2328" stroke-width="2"
     stroke-linecap="round" stroke-linejoin="round" role="img" aria-label="创意艺术">
  <path d="M28 8 C14 8 5 17 5 28 C5 39 14 48 27 48 C32 48 35 45 35 41 C35 38 33 36 33 33 C33 30 35.5 29 39 29 H44 C48 29 51 26 51 21 C51 13 41 8 28 8 Z" />
  <circle cx="18" cy="33" r="4.5" />
  <circle cx="17" cy="17" r="2.5" />
  <circle cx="28" cy="14" r="2.5" />
  <circle cx="38" cy="18.5" r="2.5" />
  <circle cx="44.5" cy="24.5" r="2" />
</svg>
